<svg xmlns="http://www.w3.org/2000/svg" xmlns:xlink="http://www.w3.org/1999/xlink" x="0px" y="0px" width="24px" height="24px" viewBox="0 0 24 24"><g >
<path data-color="color-2" fill="#FFFFFF" d="M17,22h-4v-3c0-0.6-0.4-1-1-1s-1,0.4-1,1v3H7c-0.6,0-1,0.4-1,1s0.4,1,1,1h10c0.6,0,1-0.4,1-1
S17.6,22,17,22z"/>
<path data-color="color-2" fill="#FFFFFF" d="M4,18H2v-5c0.6,0,1-0.4,1-1s-0.4-1-1-1H1c-0.6,0-1,0.4-1,1v7c0,0.6,0.4,1,1,1h3
c0.6,0,1-0.4,1-1S4.6,18,4,18z"/>
<path data-color="color-2" fill="#FFFFFF" d="M23,11h-1c-0.6,0-1,0.4-1,1s0.4,1,1,1v5h-3c-0.6,0-1,0.4-1,1s0.4,1,1,1h4c0.6,0,1-0.4,1-1v-7
C24,11.4,23.6,11,23,11z"/>
<path fill="#FFFFFF" d="M20,16H4c-0.6,0-1,0.4-1,1v2c0,0.6,0.4,1,1,1h16c0.6,0,1-0.4,1-1v-2C21,16.4,20.6,16,20,16z"/>
<path fill="#FFFFFF" d="M18,0H6C5.4,0,5,0.4,5,1v12c0,0.6,0.4,1,1,1h12c0.6,0,1-0.4,1-1V1C19,0.4,18.6,0,18,0z"/>
</g></svg>