<svg xmlns="http://www.w3.org/2000/svg" xmlns:xlink="http://www.w3.org/1999/xlink" x="0px" y="0px" width="32px" height="32px" viewBox="0 0 32 32"><g >
<path data-color="color-2" fill="#FFFFFF" d="M26,0c-0.6,0-1,0.4-1,1v30c0,0.6,0.4,1,1,1c1.7,0,3-1.3,3-3V3C29,1.3,27.7,0,26,0z"/>
<path fill="#FFFFFF" d="M21,0h-3v12c0,0.4-0.2,0.7-0.6,0.9C17.3,13,17.2,13,17,13c-0.2,0-0.4-0.1-0.6-0.2L13,10.2l-3.4,2.5
c-0.3,0.2-0.7,0.3-1,0.1C8.2,12.7,8,12.4,8,12V0H4C3.4,0,3,0.4,3,1v30c0,0.6,0.4,1,1,1h17c0.6,0,1-0.4,1-1V1C22,0.4,21.6,0,21,0z"/>
</g></svg>