<?xml version="1.0" encoding="utf-8"?>
<!-- Generator: Adobe Illustrator 21.1.0, SVG Export Plug-In . SVG Version: 6.00 Build 0)  -->
<svg version="1.1" id="Layer_1" xmlns="http://www.w3.org/2000/svg" xmlns:xlink="http://www.w3.org/1999/xlink" x="0px" y="0px"
	 viewBox="0 0 50 50" enable-background="new 0 0 50 50" xml:space="preserve">
<circle fill="#F9D126" cx="25" cy="25" r="24.5"/>
<g>
	<path fill="#FFFFFF" d="M18.9,20.8c2.7,0,4.9,2.4,4.9,5.1c0,2.8-2.2,5.2-4.9,5.2s-4.9-2.4-4.9-5.2C14.1,23.1,16.2,20.8,18.9,20.8z
		 M18.9,29.5c1.8,0,3.2-1.6,3.2-3.6c0-1.9-1.4-3.5-3.2-3.5s-3.2,1.6-3.2,3.5C15.7,27.9,17.1,29.5,18.9,29.5z"/>
	<path fill="#FFFFFF" d="M26.6,21.5c0-0.2,0.2-0.5,0.5-0.5h0.5c0.2,0,0.3,0.1,0.4,0.3l0.2,0.8c0,0,1.4-1.3,3.4-1.3
		c2.8,0,3.8,1.9,3.8,4.4v5.2c0,0.2-0.2,0.5-0.5,0.5h-0.8c-0.2,0-0.5-0.2-0.5-0.5v-5.2c0-1.9-0.8-2.8-2.2-2.8c-1.8,0-3.2,1.4-3.2,1.4
		v6.5c0,0.2-0.2,0.5-0.5,0.5H27c-0.2,0-0.5-0.2-0.5-0.5V21.5z"/>
</g>
</svg>
