<svg xmlns="http://www.w3.org/2000/svg" xmlns:xlink="http://www.w3.org/1999/xlink" x="0px" y="0px" width="32px" height="32px" viewBox="0 0 32 32"><g >
<path data-color="color-2" fill="#FFFFFF" d="M16,2v15.081L22.351,12H31c0.552,0,1-0.448,1-1V2c0-0.552-0.448-1-1-1H17
C16.448,1,16,1.448,16,2z"/>
<circle fill="#FFFFFF" cx="9" cy="14" r="5"/>
<path fill="#FFFFFF" d="M15.476,22.111C14.162,21.604,11.974,21,9,21s-5.162,0.604-6.476,1.111C1.015,22.694,0,24.189,0,25.831V30
c0,0.552,0.448,1,1,1h16c0.552,0,1-0.448,1-1v-4.169C18,24.189,16.985,22.694,15.476,22.111z"/>
</g></svg>