<svg xmlns="http://www.w3.org/2000/svg" xmlns:xlink="http://www.w3.org/1999/xlink" x="0px" y="0px" width="24px" height="24px" viewBox="0 0 24 24"><g >
<path data-color="color-2" fill="#FFFFFF" d="M22,19H2c-0.6,0-1,0.4-1,1v2c0,0.6,0.4,1,1,1h20c0.6,0,1-0.4,1-1v-2C23,19.4,22.6,19,22,19z"/>
<path fill="#FFFFFF" d="M23,4h-6V2c0-0.6-0.4-1-1-1H8C7.4,1,7,1.4,7,2v2H1C0.4,4,0,4.4,0,5v11c0,0.6,0.4,1,1,1h22c0.6,0,1-0.4,1-1V5
C24,4.4,23.6,4,23,4z M9,3h6v1H9V3z M16,12c0,0.6-0.4,1-1,1H9c-0.6,0-1-0.4-1-1V9c0-0.6,0.4-1,1-1h6c0.6,0,1,0.4,1,1V12z"/>
</g></svg>